<svg width="24" height="25" viewBox="0 0 24 25" fill="none" xmlns="http://www.w3.org/2000/svg">
<g clip-path="url(#clip0_9_1270)">
<path d="M18.831 6.27242V16.4133H8.94367V6.27242H18.831ZM18.831 4.58228H8.94367C8.03733 4.58228 7.29578 5.34284 7.29578 6.27242V16.4133C7.29578 17.3428 8.03733 18.1034 8.94367 18.1034H18.831C19.7373 18.1034 20.4789 17.3428 20.4789 16.4133V6.27242C20.4789 5.34284 19.7373 4.58228 18.831 4.58228ZM11.8275 12.7541L13.2199 14.664L15.2633 12.0443L18.0071 15.5682H9.76761L11.8275 12.7541ZM4 7.96256V19.7936C4 20.7231 4.74155 21.4837 5.64789 21.4837H17.1831V19.7936H5.64789V7.96256H4Z" fill="white"/>
</g>
<defs>
<clipPath id="clip0_9_1270">
<rect width="24" height="24" fill="white" transform="translate(0 0.582275)"/>
</clipPath>
</defs>
</svg>
