<svg width="24" height="24" viewBox="0 0 24 24" fill="none" xmlns="http://www.w3.org/2000/svg">
<rect width="24" height="24" rx="12" fill="white"/>
<path d="M10.25 8.15V10.25H8.15V8.15H10.25ZM11.3 7.1H7.1V11.3H11.3V7.1ZM10.25 13.75V15.85H8.15V13.75H10.25ZM11.3 12.7H7.1V16.9H11.3V12.7ZM15.85 8.15V10.25H13.75V8.15H15.85ZM16.9 7.1H12.7V11.3H16.9V7.1ZM12.7 12.7H13.75V13.75H12.7V12.7ZM13.75 13.75H14.8V14.8H13.75V13.75ZM14.8 12.7H15.85V13.75H14.8V12.7ZM12.7 14.8H13.75V15.85H12.7V14.8ZM13.75 15.85H14.8V16.9H13.75V15.85ZM14.8 14.8H15.85V15.85H14.8V14.8ZM15.85 13.75H16.9V14.8H15.85V13.75ZM15.85 15.85H16.9V16.9H15.85V15.85ZM19 8.5H17.6V6.4H15.5V5H19V8.5ZM19 19V15.5H17.6V17.6H15.5V19H19ZM5 19H8.5V17.6H6.4V15.5H5V19ZM5 5V8.5H6.4V6.4H8.5V5H5Z" fill="black"/>
</svg>
