<svg width="25" height="25" viewBox="0 0 25 25" fill="none" xmlns="http://www.w3.org/2000/svg">
<g clip-path="url(#clip0_9_1278)">
<path d="M19.035 13.1097C19.0688 12.832 19.0942 12.5544 19.0942 12.2593C19.0942 11.9643 19.0688 11.6867 19.035 11.409L20.8223 9.97728C20.9832 9.84712 21.0255 9.61284 20.9239 9.42194L19.2298 6.41968C19.1535 6.28084 19.0095 6.20275 18.8571 6.20275C18.8062 6.20275 18.7554 6.21143 18.7131 6.22878L16.6039 7.09649C16.1634 6.74941 15.6891 6.46306 15.1724 6.24614L14.8505 3.94671C14.8251 3.73846 14.6472 3.58228 14.4354 3.58228H11.0472C10.8354 3.58228 10.6575 3.73846 10.6321 3.94671L10.3103 6.24614C9.79355 6.46306 9.3192 6.75808 8.87873 7.09649L6.76955 6.22878C6.71873 6.21143 6.6679 6.20275 6.61708 6.20275C6.47308 6.20275 6.32908 6.28084 6.25284 6.41968L4.55873 9.42194C4.44861 9.61284 4.49943 9.84712 4.66037 9.97728L6.44767 11.409C6.41379 11.6867 6.38837 11.973 6.38837 12.2593C6.38837 12.5457 6.41379 12.832 6.44767 13.1097L4.66037 14.5414C4.49943 14.6716 4.45708 14.9059 4.55873 15.0967L6.25284 18.099C6.32908 18.2378 6.47308 18.3159 6.62555 18.3159C6.67637 18.3159 6.7272 18.3073 6.76955 18.2899L8.87873 17.4222C9.3192 17.7693 9.79355 18.0556 10.3103 18.2726L10.6321 20.572C10.6575 20.7802 10.8354 20.9364 11.0472 20.9364H14.4354C14.6472 20.9364 14.8251 20.7802 14.8505 20.572L15.1724 18.2726C15.6891 18.0556 16.1634 17.7606 16.6039 17.4222L18.7131 18.2899C18.7639 18.3073 18.8147 18.3159 18.8655 18.3159C19.0095 18.3159 19.1535 18.2378 19.2298 18.099L20.9239 15.0967C21.0255 14.9059 20.9832 14.6716 20.8223 14.5414L19.035 13.1097ZM17.3578 11.6259C17.3917 11.8949 17.4001 12.0771 17.4001 12.2593C17.4001 12.4416 17.3832 12.6325 17.3578 12.8928L17.2392 13.8733L17.9931 14.4807L18.9079 15.2096L18.315 16.2595L17.2392 15.8169L16.3583 15.4525L15.5959 16.0426C15.2317 16.3202 14.8844 16.5285 14.5371 16.676L13.6392 17.0491L13.5037 18.0296L13.3343 19.201H12.1484L11.9874 18.0296L11.8519 17.0491L10.954 16.676C10.5898 16.5198 10.251 16.3202 9.91214 16.0599L9.14131 15.4525L8.24343 15.8256L7.16767 16.2682L6.57473 15.2182L7.48955 14.4894L8.24343 13.882L8.12484 12.9015C8.09943 12.6325 8.08249 12.4329 8.08249 12.2593C8.08249 12.0858 8.09943 11.8862 8.12484 11.6259L8.24343 10.6454L7.48955 10.038L6.57473 9.30914L7.16767 8.25922L8.24343 8.70175L9.12437 9.06618L9.88672 8.47614C10.251 8.19848 10.5983 7.99023 10.9455 7.84272L11.8434 7.4696L11.979 6.48909L12.1484 5.31769H13.3258L13.4867 6.48909L13.6223 7.4696L14.5201 7.84272C14.8844 7.9989 15.2232 8.19848 15.562 8.45879L16.3328 9.06618L17.2307 8.69307L18.3065 8.25054L18.8994 9.30047L17.9931 10.038L17.2392 10.6454L17.3578 11.6259ZM12.7413 8.78852C10.8693 8.78852 9.35308 10.3417 9.35308 12.2593C9.35308 14.177 10.8693 15.7302 12.7413 15.7302C14.6133 15.7302 16.1295 14.177 16.1295 12.2593C16.1295 10.3417 14.6133 8.78852 12.7413 8.78852ZM12.7413 13.9948C11.8095 13.9948 11.0472 13.2138 11.0472 12.2593C11.0472 11.3049 11.8095 10.5239 12.7413 10.5239C13.6731 10.5239 14.4354 11.3049 14.4354 12.2593C14.4354 13.2138 13.6731 13.9948 12.7413 13.9948Z" fill="white"/>
</g>
<defs>
<clipPath id="clip0_9_1278">
<rect width="24" height="24" fill="white" transform="translate(0.5 0.582275)"/>
</clipPath>
</defs>
</svg>
