<svg width="24" height="25" viewBox="0 0 24 25" fill="none" xmlns="http://www.w3.org/2000/svg">
<g clip-path="url(#clip0_9_1267)">
<path d="M19.1499 8.30467V6.32171C19.1499 5.36502 18.3924 4.58228 17.4666 4.58228H5.68333C4.74908 4.58228 4 5.36502 4 6.32171V18.4978C4 19.4545 4.74908 20.2372 5.68333 20.2372H17.4666C18.3924 20.2372 19.1499 19.4545 19.1499 18.4978V16.5148C19.6465 16.2104 19.9916 15.6625 19.9916 15.0189V9.80059C19.9916 9.157 19.6465 8.60907 19.1499 8.30467ZM18.3083 9.80059V15.0189H12.4166V9.80059H18.3083ZM5.68333 18.4978V6.32171H17.4666V8.06115H12.4166C11.4908 8.06115 10.7333 8.8439 10.7333 9.80059V15.0189C10.7333 15.9756 11.4908 16.7583 12.4166 16.7583H17.4666V18.4978H5.68333Z" fill="#F8DF00"/>
<path d="M14.9417 13.7144C15.639 13.7144 16.2042 13.1303 16.2042 12.4098C16.2042 11.6893 15.639 11.1052 14.9417 11.1052C14.2444 11.1052 13.6792 11.6893 13.6792 12.4098C13.6792 13.1303 14.2444 13.7144 14.9417 13.7144Z" fill="#F8DF00"/>
</g>
<defs>
<clipPath id="clip0_9_1267">
<rect width="24" height="24" fill="white" transform="translate(0 0.582275)"/>
</clipPath>
</defs>
</svg>
